<?xml version="1.0" standalone="no"?>
<!DOCTYPE svg PUBLIC "-//W3C//DTD SVG 20010904//EN"
 "http://www.w3.org/TR/2001/REC-SVG-20010904/DTD/svg10.dtd">
<style>
@keyframes wave {
  0% { transform: rotate(0deg); }
  25% { transform: rotate(-15deg); }
  50% { transform: rotate(0deg); }
  75% { transform: rotate(-15deg); }
  100% { transform: rotate(0deg); }
}

.waving-arm {
  transform-origin: 3000px 4000px;
  animation: wave 1.5s ease-in-out infinite;
}
</style>
<svg version="1.0" xmlns="http://www.w3.org/2000/svg"
 width="800.000000pt" height="800.000000pt" viewBox="0 0 800.000000 800.000000"
 preserveAspectRatio="xMidYMid meet">


<g transform="translate(-200.000000,640.000000) scale(0.100000,-0.100000)"
fill="#000000" stroke="none">

<g class="waving-arm">
<path d="M3015 4912 c31 -21 61 -100 69 -180 7 -70 16 -88 42 -78 10 4 13 30 13 102 0
120 18 164 68 169 29 3 34 0 48 -33 12 -30 14 -61 8 -165 l-7 -128 -49 -32
c-54 -35 -102 -98 -96 -127 6 -30 37 -21 56 17 11 22 37 47 71 67 35 21 62 47
77 73 55 97 145 122 160 45 5 -28 -5 -55 -62 -171 -100 -202 -157 -248 -309
-248 -88 0 -136 18 -189 70 -39 39 -75 121 -83 186 -3 31 -22 86 -45 134 -47
98 -50 155 -8 186 45 33 67 14 114 -93 26 -60 48 -95 59 -97 32 -6 30 29 -7
119 -38 94 -43 127 -25 162 22 40 58 49 95 22z"/>
</g>
</g>

<g transform="translate(100.000000,600.000000) scale(0.100000,-0.100000)"
fill="#000000" stroke="none">

<path d="M3284 4412 c19 -13 45 -45 59
-73 23 -43 26 -61 26 -150 0 -133 -29 -229 -85 -285 -33 -33 -47 -40 -79 -40
-83 0 -121 74 -121 234 0 146 38 269 96 315 34 27 63 27 104 -1z m-2671 -168
c-6 -74 -14 -164 -18 -200 l-7 -65 -15 45 c-8 26 -14 84 -14 140 1 83 4 103
29 158 16 34 30 61 32 59 2 -1 -2 -63 -7 -137z m-100 -203 c17 -63 57 -137 74
-137 4 0 7 -29 7 -64 0 -99 27 -234 61 -303 30 -62 79 -112 144 -146 38 -21
20 -21 -91 -2 -120 21 -200 61 -262 131 -62 70 -80 124 -62 189 8 29 10 69 6
114 -7 69 -6 71 45 180 29 61 54 110 56 108 2 -2 12 -34 22 -70z m2530 -115
c15 -53 63 -109 101 -117 37 -8 38 -26 6 -117 -60 -168 -147 -255 -305 -302
-30 -9 -56 -14 -58 -13 -2 2 19 22 45 44 92 78 142 220 177 498 1 11 3 36 4
55 2 29 4 31 11 15 4 -11 13 -39 19 -63z m-2709 -151 c0 -45 -31 -96 -79 -128
-26 -18 -48 -23 -93 -23 -93 0 -149 32 -167 96 l-8 29 97 0 c92 0 101 2 166
36 38 19 72 34 77 32 4 -2 7 -21 7 -42z m3 -199 c39 -88 131 -171 232 -210 55
-21 159 -42 213 -42 35 0 52 -4 52 -12 -1 -29 -36 -158 -45 -166 -14 -13 -181
3 -257 24 -161 43 -308 161 -373 296 -19 40 -35 78 -35 85 0 9 16 13 48 13 30
0 63 9 92 25 25 13 48 24 51 24 3 1 13 -16 22 -37z m677 -256 c77 -15 102 -20
181 -30 25 -4 57 -9 70 -11 13 -2 56 -6 94 -10 39 -3 84 -7 100 -10 194 -25
858 -26 992 -1 10 2 43 7 73 10 69 8 93 12 205 37 49 10 90 19 91 19 0 0 -9
-21 -22 -47 -27 -55 -28 -64 -14 -114 12 -44 35 -71 78 -93 30 -16 32 -20 32
-71 l0 -54 -67 -20 c-38 -11 -101 -29 -142 -40 -82 -23 -107 -40 -116 -81 -3
-16 3 -102 14 -192 43 -343 43 -349 24 -364 -114 -91 -356 -138 -703 -137
-466 1 -747 68 -890 212 -71 71 -112 143 -145 256 -52 174 -45 498 16 678 21
64 36 90 48 83 3 -2 40 -11 81 -20z m2025 -4 c79 -32 131 -68 205 -142 86 -87
128 -153 172 -272 28 -75 31 -95 32 -200 1 -64 -2 -120 -6 -124 -5 -4 -33 5
-64 21 -30 15 -77 30 -103 33 l-48 4 -15 93 c-20 118 -45 171 -125 256 -49 51
-86 79 -153 114 -96 49 -108 65 -96 127 8 42 44 98 70 108 25 10 76 3 131 -18z
m-44 -321 l24 -20 -25 -9 c-32 -12 -40 -7 -40 24 0 29 10 30 41 5z m89 -86 c6
-7 7 -16 2 -19 -4 -2 -80 -23 -167 -45 -108 -27 -164 -46 -173 -58 -9 -12 -12
-34 -9 -63 10 -86 68 -585 70 -600 2 -17 -59 -26 -82 -11 -13 8 -27 63 -37
146 -3 22 -7 51 -9 65 -3 14 -7 49 -11 78 -3 29 -7 63 -10 75 -2 12 -6 46 -10
75 -3 29 -7 63 -10 75 -2 12 -7 54 -10 92 -5 55 -3 73 8 83 15 12 138 49 238
72 30 7 62 16 70 20 8 5 30 10 48 13 19 3 35 7 37 9 10 10 45 5 55 -7z m231
-347 c52 -15 116 -71 124 -108 4 -17 4 -44 0 -61 l-7 -30 -33 39 c-39 45 -134
98 -192 108 -62 10 -73 20 -44 44 27 23 92 27 152 8z m-55 -130 c69 -32 110
-78 122 -135 19 -87 -12 -188 -72 -241 -44 -39 -76 -45 -52 -10 15 22 22 58
11 58 -3 0 -23 -18 -44 -40 -31 -32 -45 -40 -74 -40 -21 0 -37 2 -37 5 0 3 16
26 36 51 49 65 31 80 -31 26 -78 -69 -154 -91 -189 -56 -21 21 -21 21 22 43
20 10 49 32 64 48 29 31 88 148 88 176 0 21 -23 22 -40 2 -17 -21 -83 -19
-103 3 -8 9 -18 29 -22 44 -9 34 23 68 64 68 16 0 44 7 62 15 44 20 133 13
195 -17z m-1760 -362 c1 0 5 -54 9 -118 l7 -117 -39 -10 c-47 -13 -133 -14
-167 -1 -14 5 -29 18 -35 28 -12 22 -27 232 -18 254 4 12 23 11 124 -10 65
-13 119 -25 119 -26z m942 17 c0 -10 7 -73 17 -141 10 -67 16 -125 12 -128
-23 -24 -153 -30 -201 -10 -36 15 -31 -3 -52 195 l-6 60 38 6 c22 4 66 12 99
20 82 18 94 18 93 -2z m-858 -313 c0 -11 -5 -30 -11 -43 -9 -21 -7 -32 14 -68
14 -24 34 -73 43 -108 l18 -64 -27 -22 c-51 -44 -224 -82 -413 -92 -202 -9
-314 20 -314 83 0 68 88 176 174 214 73 33 119 35 186 10 56 -21 90 -22 90 -2
0 5 -14 15 -30 22 -46 19 -80 49 -80 71 0 23 7 23 53 4 51 -21 180 -19 237 4
50 20 60 18 60 -9z m962 -34 c-11 -26 -49 -41 -130 -53 -46 -6 -61 -18 -44
-35 7 -7 35 -7 90 2 43 7 90 10 104 7 72 -18 159 -125 171 -210 5 -33 2 -43
-18 -62 -80 -73 -447 -53 -525 30 -35 37 -27 145 16 223 22 41 23 45 8 74 -21
41 -7 54 43 37 55 -18 158 -14 223 9 61 22 79 15 62 -22z"/>
</g>
<g transform="translate(-110.000000,670.000000) scale(0.100000,-0.100000)"
fill="#000000" stroke="none">

<path d="M3585 5613 c-117 -8 -323 -36 -393 -54 -167 -43 -229 -116 -272 -321
-44 -217 -76 -759 -50 -869 24 -102 58 -148 137 -188 145 -72 598 -117 1096
-108 380 7 527 31 620 102 57 44 91 112 111 225 24 132 56 504 63 720 7 229
-3 283 -64 351 -76 84 -189 114 -528 139 -127 9 -597 11 -720 3z m-147 -455
c7 -7 12 -20 12 -30 0 -14 -8 -18 -37 -18 -21 -1 -56 -8 -78 -16 -75 -29 -75
-29 -75 -1 0 24 31 55 70 70 28 10 96 7 108 -5z m979 -9 c38 -14 73 -48 73
-71 0 -23 -22 -23 -63 -1 -20 11 -55 18 -91 18 -66 0 -79 12 -47 44 23 23 81
28 128 10z m-977 -234 c17 -9 39 -34 51 -57 29 -57 28 -173 -2 -235 -25 -52
-33 -52 -18 0 16 58 -4 114 -47 135 -32 15 -38 15 -62 1 -15 -8 -32 -26 -39
-39 -24 -48 -12 -140 21 -162 7 -5 5 -8 -5 -8 -25 0 -70 40 -85 76 -23 56 -18
152 12 211 41 83 107 112 174 78z m980 -24 c86 -63 93 -259 13 -332 -23 -21
-25 -22 -17 -4 5 11 9 49 9 83 0 57 -3 66 -28 88 -35 30 -59 30 -93 1 -23 -20
-28 -34 -32 -85 -3 -46 0 -68 12 -87 25 -37 -5 -33 -37 5 -40 47 -53 129 -33
207 18 76 43 114 88 137 38 19 81 14 118 -13z m-684 -352 c85 -22 154 -21 251
5 64 17 78 6 70 -54 -7 -52 -38 -94 -95 -127 -62 -37 -165 -39 -229 -5 -70 37
-122 126 -103 177 11 30 8 30 106 4z"/>
<path d="M3218 3664 c-5 -4 -8 -90 -8 -191 l0 -183 90 0 c134 0 180 25 180 99
0 38 -19 81 -37 81 -19 0 -16 14 6 34 42 38 35 110 -13 141 -27 18 -205 34
-218 19z m170 -76 c7 -7 12 -21 12 -33 0 -33 -20 -45 -72 -45 l-48 0 0 45 0
45 48 0 c26 0 53 -5 60 -12z m5 -152 c9 -7 17 -23 17 -34 0 -35 -27 -52 -81
-52 l-49 0 0 50 0 50 48 0 c26 0 55 -7 65 -14z"/>
<path d="M3510 3652 c0 -4 25 -55 55 -112 53 -101 55 -107 55 -182 l0 -78 35
0 c19 0 35 1 36 3 0 1 3 36 6 77 5 77 4 74 95 238 l29 52 -45 0 -46 0 -32 -65
c-18 -36 -35 -65 -39 -65 -4 0 -20 32 -35 70 l-27 70 -44 0 c-23 0 -43 -3 -43
-8z"/>
<path d="M3858 3644 c-5 -4 -8 -20 -8 -35 0 -27 2 -28 53 -31 l52 -3 0 -150 0
-150 35 0 35 0 3 148 c2 107 6 147 15 148 6 1 30 2 52 3 38 1 40 3 43 34 l3
32 -94 0 c-52 0 -114 3 -138 6 -24 3 -47 2 -51 -2z"/>
<path d="M4204 3627 c-2 -7 -3 -91 -2 -187 l3 -175 123 -3 122 -3 0 30 0 30
-87 3 -88 3 0 45 0 45 65 3 c72 3 85 10 75 41 -6 19 -14 21 -76 21 l-69 0 0
45 0 45 90 0 90 0 0 35 0 35 -120 0 c-89 0 -122 -3 -126 -13z"/>
<path d="M3230 3115 l0 -65 33 0 c38 0 50 7 66 37 22 43 -16 93 -73 93 -25 0
-26 -2 -26 -65z m78 7 c4 -26 -13 -52 -34 -52 -10 0 -14 13 -14 41 0 36 2 40
23 37 14 -2 23 -11 25 -26z"/>
<path d="M3370 3110 l0 -60 42 0 c23 0 38 3 34 7 -4 4 -17 8 -29 8 -12 0 -23
7 -25 18 -3 13 3 17 22 17 14 0 26 5 26 10 0 6 -11 10 -25 10 -16 0 -25 6 -25
15 0 9 9 15 24 15 14 0 28 5 31 10 4 6 -10 10 -34 10 l-41 0 0 -60z"/>
<path d="M3490 3155 c-17 -21 -5 -44 30 -56 16 -6 30 -17 30 -25 0 -17 -32
-18 -48 -2 -9 9 -12 8 -12 -5 0 -20 47 -34 69 -20 9 6 17 20 19 32 3 17 -5 25
-33 37 -20 8 -35 20 -33 26 7 19 24 20 41 3 11 -10 18 -12 23 -4 16 27 -64 40
-86 14z"/>
<path d="M3620 3104 c0 -41 4 -63 10 -59 6 3 10 13 10 21 0 21 12 17 36 -13
30 -38 41 -22 16 21 -18 30 -19 37 -7 53 27 35 16 48 -15 18 l-30 -29 0 27 c0
15 -4 27 -10 27 -6 0 -10 -29 -10 -66z"/>
<path d="M3750 3095 l0 -65 33 0 c47 0 56 10 55 60 -2 57 -12 70 -54 70 l-34
0 0 -65z m58 28 c-2 -10 -10 -18 -18 -18 -8 0 -16 8 -18 18 -2 12 3 17 18 17
15 0 20 -5 18 -17z m7 -53 c0 -8 -10 -16 -22 -18 -18 -3 -23 2 -23 18 0 16 5
21 23 18 12 -2 22 -10 22 -18z"/>
<path d="M3880 3108 c0 -61 6 -72 38 -83 38 -11 62 19 62 77 0 62 -18 63 -22
1 -3 -44 -5 -48 -28 -48 -23 0 -25 4 -28 53 -2 28 -7 52 -13 52 -5 0 -9 -24
-9 -52z"/>
<path d="M4028 3094 c-4 -71 1 -78 46 -70 82 16 73 126 -11 126 -31 0 -31 -1
-35 -56z m67 -4 c0 -29 -4 -36 -22 -38 -21 -3 -23 1 -23 38 0 37 2 41 23 38
18 -2 22 -9 22 -38z"/>
<path d="M4170 3085 l0 -65 34 0 c52 0 74 30 66 90 -2 23 -31 40 -67 40 l-33
0 0 -65z m68 33 c25 -25 8 -78 -25 -78 -9 0 -13 15 -13 45 0 46 13 58 38 33z"/>
<path d="M4320 3110 c11 -21 20 -51 20 -65 0 -16 6 -25 15 -25 10 0 15 10 15
28 0 15 9 42 21 61 25 42 15 55 -15 18 l-23 -28 -17 25 c-26 41 -39 30 -16
-14z"/>
</g>
</svg>
