<svg width="240" height="120" viewBox="0 0 240 120" fill="none" xmlns="http://www.w3.org/2000/svg">
  <!-- Background shape -->
  <rect width="240" height="120" rx="12" fill="white"/>
  
  <!-- Barracuda silhouette -->
  <path d="M190 50C180 50 170 55 160 60C150 65 140 70 130 70C120 70 110 65 100 60C90 55 80 50 70 50C60 50 50 55 40 60L45 70C55 65 65 60 75 60C85 60 95 65 105 70C115 75 125 80 135 80C145 80 155 75 165 70C175 65 185 60 195 60L190 50Z" fill="url(#gradient)"/>
  
  <!-- Eye -->
  <circle cx="70" cy="55" r="5" fill="#2C3E50"/>
  
  <!-- Fins -->
  <path d="M135 80L145 95L155 80" fill="url(#gradient)"/>
  <path d="M105 70L95 85L85 70" fill="url(#gradient)"/>
  
  <!-- Tail -->
  <path d="M190 50L205 40L200 50L210 60L190 55" fill="url(#gradient)"/>
  
  <!-- Text -->
  <text x="120" y="110" font-family="Arial, sans-serif" font-size="16" font-weight="bold" text-anchor="middle" fill="#0A8F88">BarracudaDMS</text>
  
  <!-- Gradient definition -->
  <defs>
    <linearGradient id="gradient" x1="0%" y1="0%" x2="100%" y2="100%">
      <stop offset="0%" stop-color="#0A8F88" />
      <stop offset="100%" stop-color="#14B8B0" />
    </linearGradient>
  </defs>
</svg> 