<?xml version="1.0" encoding="UTF-8" standalone="no"?>
<svg width="800" height="800" viewBox="0 0 800 800" xmlns="http://www.w3.org/2000/svg">
  <!-- Background -->
  <rect width="800" height="800" fill="white"/>
  
  <!-- Traced paths -->
  <path d="M 304.690 186.802 C 301.542 190.088, 300.663 194.308, 298.936 214.452 L 297.739 228.404 291.009 234.952 C 286.035 239.793, 283.357 243.456, 280.740 249 C 276.979 256.968, 273.825 269.173, 271.997 282.832 C 270.993 290.339, 270.558 291.449, 267.615 294.033 C 264.593 296.687, 262.594 300.180, 260.016 307.317 L 258.998 310.135 255.776 307.840 C 251.582 304.854, 246.078 304.827, 242.094 307.773 C 240.437 308.998, 238.780 310, 238.411 310 C 238.043 310, 238.052 306.438, 238.432 302.085 C 238.852 297.272, 238.699 292.597, 238.042 290.158 C 236.562 284.660, 232.057 281, 226.768 281 C 223.336 281, 222.109 281.611, 219.017 284.861 L 215.345 288.722 212.193 285.410 C 208.060 281.066, 203.312 280.139, 198.269 282.691 C 195.711 283.986, 193.866 285.948, 192.526 288.799 C 190.789 292.496, 190.153 293, 187.226 293 C 182.613 293, 178.336 295.450, 176.395 299.203 C 173.970 303.893, 175.012 312.105, 179.041 320.056 C 180.837 323.600, 182.898 329.577, 183.620 333.337 C 184.342 337.097, 186.006 342.518, 187.318 345.383 C 189.977 351.191, 195.172 357.603, 197.929 358.478 C 199.172 358.872, 199.925 360.439, 200.346 363.505 C 201.331 370.697, 203.505 374.621, 208.517 378.259 C 212.369 381.054, 213.545 382.695, 215.190 387.576 C 217.871 395.530, 224.711 405.591, 232.068 412.402 C 238.942 418.766, 250.740 424.830, 261.348 427.451 C 265.115 428.381, 272.090 429.395, 276.848 429.703 L 285.500 430.264 285.567 450.882 C 285.625 468.839, 285.914 472.517, 287.809 479.378 C 289.005 483.711, 291.626 490.686, 293.632 494.878 C 296.355 500.567, 299.125 504.322, 304.554 509.685 C 309.981 515.046, 313.862 517.838, 319.845 520.685 L 327.862 524.500 328.181 538.324 C 328.461 550.474, 328.288 552.340, 326.750 553.729 C 325.751 554.632, 325 556.737, 325 558.636 C 325 561.450, 324.577 562.055, 322.250 562.570 C 310.465 565.174, 302.130 570.257, 296.705 578.147 C 292.847 583.758, 290.980 590.506, 291.780 595.953 C 292.115 598.239, 293.363 599.975, 296.092 601.952 C 299.152 604.168, 301.862 604.989, 309.422 605.990 C 329.264 608.616, 362.418 604.013, 373.693 597.066 C 376.466 595.357, 376.927 594.467, 377.193 590.299 C 377.538 584.908, 376.174 578.451, 373.435 572.500 C 372.342 570.127, 371.574 566.126, 371.547 562.663 C 371.507 557.642, 371.150 556.557, 369 554.913 C 367.625 553.861, 365.938 552.533, 365.250 551.961 C 364.409 551.262, 364 547.784, 364 541.342 L 364 531.762 373.750 532.513 C 379.113 532.926, 392.387 533.224, 403.250 533.176 C 418.018 533.111, 423.012 533.393, 423.048 534.295 C 423.074 534.958, 423.665 540.353, 424.360 546.283 C 425.419 555.315, 425.403 557.251, 424.259 558.200 C 423.362 558.944, 422.947 561.253, 423.049 564.917 C 423.136 567.988, 422.490 572.403, 421.616 574.728 C 420.741 577.054, 419.542 582.066, 418.953 585.867 C 418.082 591.479, 418.154 593.432, 419.334 596.257 C 421.950 602.519, 429.956 606.743, 443.585 609.054 C 449.834 610.113, 464.785 610.375, 469 609.499 C 470.375 609.213, 472.790 608.743, 474.367 608.455 C 478.315 607.732, 482.419 605.491, 485.582 602.327 C 487.979 599.930, 488.191 599.138, 487.703 594.407 C 487.404 591.516, 486.275 587.149, 485.193 584.703 C 482.833 579.367, 476.912 572.601, 471.756 569.346 C 468.372 567.210, 468 566.552, 468 562.710 C 468 557.875, 465.785 554, 463.023 554 C 461.798 554, 460.958 553.057, 460.574 551.250 C 459.809 547.652, 457.013 528.859, 457.006 527.260 C 457.003 526.578, 460.038 524.576, 463.750 522.812 C 467.462 521.048, 470.837 519.431, 471.250 519.219 C 471.663 519.007, 472 520.010, 472 521.449 C 472 525.426, 474.554 530.690, 477.165 532.095 C 478.501 532.813, 482.534 533.291, 486.588 533.211 C 493.336 533.078, 493.781 533.212, 495.840 535.998 C 498.452 539.530, 504.572 541.466, 509.266 540.242 C 511.372 539.693, 513.721 539.833, 516 540.643 C 520.339 542.185, 530.244 542.338, 535.277 540.940 C 540.384 539.522, 545.588 534.741, 548.720 528.590 C 550.595 524.909, 551.440 521.424, 551.773 516 C 552.094 510.779, 552.769 507.892, 553.992 506.500 C 556.889 503.204, 558.002 500.342, 557.955 496.316 C 557.930 494.217, 557.324 491.150, 556.609 489.500 C 555.538 487.030, 555.542 485.826, 556.633 482.684 C 558.733 476.636, 559.324 467.094, 558.090 459.144 C 555.838 444.631, 548.324 429.555, 537.697 418.230 C 531.520 411.647, 519.942 403.806, 512.989 401.496 C 510.245 400.585, 508 399.462, 508 399.001 C 508 398.540, 509.575 397.190, 511.500 396 C 519.051 391.333, 525.918 379.961, 529.546 366.114 C 531.469 358.774, 532.103 357.572, 534.622 356.481 C 536.205 355.796, 538.938 353.720, 540.696 351.868 C 547.665 344.524, 551.765 329.488, 550.694 315.206 C 549.974 305.603, 545.672 296.094, 540.562 292.813 C 538.581 291.541, 536.772 289.600, 536.543 288.500 C 536.314 287.400, 535.901 283.269, 535.627 279.319 C 534.555 263.898, 528.926 249.420, 520.728 241 L 516.347 236.500 519.089 222 C 524.123 195.379, 523.959 190.582, 517.909 187.453 C 511.541 184.160, 504.192 186.831, 501.497 193.418 C 500.803 195.113, 499.210 202.575, 497.958 210 C 496.705 217.425, 495.344 223.886, 494.933 224.357 C 494.522 224.828, 491.724 224.292, 488.715 223.166 C 485.706 222.040, 478.576 220.224, 472.872 219.130 C 453.211 215.359, 439.233 214.498, 398.500 214.547 C 367.459 214.584, 356.949 214.942, 347 216.302 C 340.125 217.242, 331.804 218.650, 328.508 219.430 C 325.213 220.211, 322.459 220.771, 322.389 220.675 C 322.318 220.579, 322.632 217.575, 323.086 214 C 323.540 210.425, 324 203.486, 324.109 198.581 C 324.304 189.727, 324.282 189.641, 321.137 186.831 C 318.503 184.478, 317.074 184, 312.671 184 C 308.174 184, 306.969 184.423, 304.690 186.802 M 308.172 191.750 C 307.678 192.713, 306.990 195.365, 306.642 197.645 C 305.910 202.444, 306.630 203, 313.582 203 L 318 203 318 197.700 C 318 194.785, 317.460 191.860, 316.800 191.200 C 314.942 189.342, 309.221 189.707, 308.172 191.750 M 507.619 194.250 C 506.834 195.488, 505.895 198.349, 505.532 200.609 L 504.872 204.718 508.686 205.348 C 515.626 206.495, 515.754 206.422, 516.508 200.941 C 517.071 196.852, 516.867 195.511, 515.447 193.941 C 513.082 191.328, 509.380 191.474, 507.619 194.250 M 304.683 216.701 C 304.345 221.487, 304.198 225.532, 304.356 225.689 C 304.514 225.847, 307.084 225.117, 310.067 224.067 C 315.961 221.991, 316.721 220.801, 316.900 213.367 C 316.984 209.883, 316.646 209.138, 314.750 208.630 C 313.512 208.299, 310.879 208.021, 308.899 208.014 L 305.297 208 304.683 216.701 M 503.518 212.345 C 502.418 217.363, 500.899 227.229, 501.187 227.481 C 502.644 228.753, 510.322 232.012, 510.781 231.553 C 511.104 231.230, 512.132 226.664, 513.066 221.406 C 514.290 214.512, 514.448 211.752, 513.632 211.506 C 513.009 211.318, 510.585 210.945, 508.245 210.677 C 504.502 210.248, 503.934 210.448, 503.518 212.345 M 363.704 221.014 C 339.785 222.780, 316.476 227.466, 305.006 232.814 C 298.571 235.815, 290.804 242.755, 287.491 248.466 C 282.550 256.981, 279.139 271.936, 276.536 296.500 C 271.431 344.664, 271.949 369.072, 278.342 381.688 C 283.314 391.500, 292.236 396.559, 312.194 400.883 C 332.537 405.290, 374.766 409, 404.597 409 C 422.538 409, 446.071 407.271, 460 404.930 C 475.483 402.328, 484.381 398.058, 490.097 390.488 C 498.360 379.543, 502.632 359.620, 506.068 316 C 507.627 296.214, 507.637 265.073, 506.088 257 C 505.402 253.425, 503.525 247.733, 501.917 244.351 C 497.142 234.306, 490.139 229.401, 475.756 226.030 C 460.250 222.395, 442.014 220.912, 408 220.518 C 390.125 220.312, 370.192 220.534, 363.704 221.014 M 504.144 237.750 C 505.754 239.688, 509.174 247.330, 511.192 253.500 C 512.126 256.357, 512.500 264.563, 512.500 282.221 L 512.500 306.943 514.803 301.721 C 516.070 298.850, 518.310 295.243, 519.782 293.707 C 521.253 292.171, 524.367 290.433, 526.701 289.845 L 530.946 288.776 530.376 282.638 C 529.513 273.336, 526.343 260.611, 523.485 254.971 C 522.080 252.198, 519.258 248.069, 517.215 245.796 C 511.948 239.938, 499.695 232.395, 504.144 237.750 M 358.500 238.690 C 346.825 239.460, 326.199 242.287, 319.211 244.074 C 315.065 245.134, 309.791 247.104, 307.493 248.451 C 299.642 253.052, 295.144 261.127, 292.040 276.192 C 287.566 297.905, 284.415 352.123, 286.991 363.063 C 289.400 373.293, 292.753 377.894, 300.709 381.887 C 315.175 389.146, 360.541 393.633, 410.283 392.724 C 448.341 392.029, 462.969 389.622, 472.266 382.523 C 478.017 378.132, 481.407 371.295, 483.436 360 C 485.805 346.811, 489.044 309.559, 489.697 288 C 490.198 271.462, 490.032 267.620, 488.604 262.709 C 486.697 256.150, 481.642 249.850, 476.068 247.086 C 463.639 240.923, 434.314 237.890, 390 238.184 C 375.425 238.281, 361.250 238.509, 358.500 238.690 M 333 283.722 C 332.175 284.032, 330.262 285.152, 328.750 286.211 C 326.973 287.455, 326 289.038, 326 290.685 C 326 293.454, 326.024 293.454, 333.500 290.610 C 335.700 289.773, 339.188 289.068, 341.250 289.044 C 344.178 289.010, 345 288.606, 345 287.200 C 345 286.210, 344.460 284.860, 343.800 284.200 C 342.586 282.986, 335.761 282.684, 333 283.722 M 428.938 286.063 C 427.803 287.197, 427.054 288.659, 427.273 289.313 C 427.518 290.046, 429.933 290.511, 433.585 290.530 C 437.221 290.548, 440.733 291.222, 442.700 292.280 C 444.461 293.226, 446.598 294, 447.450 294 C 449.738 294, 449.332 290.660, 446.750 288.241 C 441.813 283.616, 432.520 282.480, 428.938 286.063 M 200.400 287.765 C 198.641 288.940, 197 292.652, 197 295.457 C 197 296.880, 198.637 302.048, 200.638 306.941 C 204.306 315.908, 204.496 319.435, 201.278 318.815 C 200.179 318.603, 198.047 315.051, 195.428 309.070 C 190.744 298.372, 188.468 296.519, 184.046 299.807 C 182.134 301.229, 181.421 302.773, 181.185 306.010 C 180.937 309.396, 181.712 312.055, 184.800 318.410 C 187.121 323.188, 188.974 328.681, 189.327 331.827 C 190.056 338.330, 193.707 346.516, 197.588 350.351 C 199.175 351.918, 202.280 354.148, 204.487 355.305 C 207.592 356.934, 210.310 357.410, 216.500 357.413 C 225.812 357.416, 231.410 355.335, 237.072 349.763 C 239.223 347.648, 243.342 340.796, 247.420 332.551 C 253.125 321.017, 254.095 318.322, 253.563 315.483 C 253.156 313.316, 252.203 311.882, 250.893 311.466 C 246.420 310.046, 241.463 313.221, 237.639 319.953 C 236.121 322.625, 233.412 325.192, 229.902 327.282 C 226.458 329.334, 223.867 331.768, 222.753 334 C 220.877 337.761, 217.759 338.700, 217.177 335.680 C 216.625 332.817, 221.417 326.520, 226.805 323.029 L 231.727 319.840 232.423 307.031 C 232.990 296.606, 232.833 293.537, 231.583 290.546 C 230.204 287.244, 229.714 286.902, 226.774 287.185 C 224.177 287.435, 223.138 288.224, 221.752 291 C 220.450 293.605, 220.003 296.966, 220.002 304.143 C 220 311.282, 219.652 313.920, 218.659 314.300 C 216.148 315.264, 215.209 313.506, 214.490 306.500 C 213.667 298.475, 210.668 290.581, 207.636 288.458 C 205.396 286.889, 202.174 286.580, 200.400 287.765 M 525.607 297.095 C 519.793 301.668, 516.039 313.986, 516.015 328.568 C 515.989 344.636, 519.798 352, 528.135 352 C 531.304 352, 532.713 351.287, 535.959 348.041 C 541.638 342.362, 544.481 332.821, 544.480 319.452 C 544.478 310.647, 544.163 308.792, 541.930 304.452 C 539.222 299.191, 534.149 295, 530.487 295 C 529.267 295, 527.071 295.943, 525.607 297.095 M 266.433 306.229 C 263.942 311.692, 263.569 313.724, 263.537 322 C 263.515 327.594, 264.089 333.350, 264.934 336 L 266.368 340.500 267.111 334 C 268.187 324.598, 269.953 300.620, 269.596 300.262 C 269.429 300.095, 268.005 302.780, 266.433 306.229 M 332.309 309.078 C 330.520 310.224, 327.994 313.378, 326.559 316.257 C 324.623 320.142, 324 322.936, 324 327.728 C 324 331.213, 324.620 335.549, 325.379 337.364 C 326.900 341.005, 331.369 345.009, 333.885 344.985 C 334.907 344.975, 335.096 344.700, 334.400 344.235 C 331.052 341.999, 329.851 332.828, 332.279 328.030 C 332.967 326.672, 334.730 324.887, 336.197 324.063 C 338.593 322.718, 339.225 322.737, 342.383 324.243 C 345.123 325.550, 346.143 326.818, 346.994 329.976 C 347.751 332.787, 347.774 335.159, 347.070 337.709 C 346.511 339.732, 346.215 341.549, 346.413 341.746 C 346.610 341.943, 347.729 340.126, 348.900 337.707 C 350.459 334.487, 351.049 331.297, 351.106 325.794 C 351.165 320.022, 350.696 317.324, 349.082 314.160 C 345.556 307.250, 338.501 305.112, 332.309 309.078 M 430.218 309.623 C 428.413 310.535, 426.040 312.540, 424.944 314.079 C 423.848 315.618, 422.240 319.758, 421.371 323.279 C 420.062 328.586, 419.993 330.649, 420.969 335.350 C 422.175 341.159, 426.007 347, 428.612 347 C 429.802 347, 429.767 346.573, 428.403 344.493 C 427.176 342.619, 426.873 340.434, 427.205 335.842 C 427.578 330.688, 428.089 329.320, 430.380 327.349 C 431.883 326.057, 433.961 325, 435 325 C 436.039 325, 438.151 326.086, 439.694 327.412 C 442.222 329.586, 442.499 330.453, 442.491 336.162 C 442.487 339.648, 442.077 343.400, 441.581 344.500 C 440.791 346.254, 441.003 346.206, 443.307 344.106 C 447.166 340.591, 449.358 333.052, 448.745 325.409 C 448.463 321.899, 447.407 317.674, 446.369 315.900 C 442.510 309.311, 435.912 306.746, 430.218 309.623 M 251.101 338.070 C 245.955 349.040, 245.903 349.247, 246.577 356.086 C 247.023 360.614, 246.824 364.558, 245.999 367.502 C 244.183 373.991, 245.959 379.433, 252.168 386.399 C 258.367 393.355, 266.444 397.370, 278.445 399.463 C 289.500 401.390, 291.338 401.364, 287.500 399.331 C 281.022 395.900, 276.070 390.888, 273.070 384.724 C 269.696 377.793, 267 364.310, 267 354.369 C 267 350.866, 266.663 347.997, 266.250 347.993 C 264.601 347.978, 260.621 340.601, 258.886 334.344 C 257.875 330.697, 256.881 327.547, 256.677 327.343 C 256.473 327.139, 253.964 331.966, 251.101 338.070 M 508.940 341 C 508.833 342.925, 508.633 345.400, 508.496 346.500 C 506.291 364.254, 502.747 378.819, 498.852 386.126 C 496.969 389.659, 493.592 393.911, 490.799 396.266 C 488.154 398.497, 486.140 400.473, 486.324 400.658 C 486.939 401.272, 497.436 397.810, 502 395.488 C 507.783 392.545, 513.969 386.615, 517.451 380.674 C 520.595 375.309, 524.948 363.546, 524.979 360.329 C 524.994 358.730, 524.222 357.988, 522.042 357.509 C 518.154 356.655, 513.378 351.102, 511.943 345.767 C 511.311 343.420, 510.422 340.600, 509.965 339.500 C 509.283 337.855, 509.101 338.122, 508.940 341 M 363.014 346.463 C 361.077 351.559, 366.265 360.515, 373.308 364.230 C 376.452 365.888, 379.250 366.448, 384.500 366.470 C 390.370 366.495, 392.256 366.056, 396.185 363.746 C 398.761 362.232, 401.844 359.623, 403.036 357.949 C 405.631 354.305, 406.747 347.605, 405.092 345.610 C 404.090 344.403, 403.177 344.400, 398.711 345.588 C 388.977 348.177, 382.149 348.308, 373.590 346.069 C 369.240 344.931, 365.291 344, 364.815 344 C 364.340 344, 363.529 345.108, 363.014 346.463 M 232.599 359.920 C 226.056 363.315, 225.196 363.499, 215.985 363.478 L 206.271 363.457 207.105 366.366 C 208.945 372.780, 214.531 376, 223.820 376 C 228.284 376, 230.518 375.451, 233.078 373.726 C 237.868 370.498, 241 365.432, 241 360.911 C 241 358.825, 240.662 356.943, 240.250 356.729 C 239.838 356.515, 236.395 357.951, 232.599 359.920 M 234 379.548 C 231.112 381.085, 227.799 381.954, 224.750 381.972 C 221.575 381.991, 220 382.424, 220 383.278 C 220 383.981, 221.561 387.815, 223.470 391.797 C 229.963 405.345, 244.722 417.056, 260.808 421.423 C 268.371 423.477, 285.111 425.053, 286.463 423.839 C 287.354 423.039, 290.863 410.090, 290.958 407.250 C 290.986 406.405, 289.298 405.995, 285.750 405.985 C 280.438 405.970, 269.998 403.924, 264.500 401.819 C 254.362 397.939, 245.194 389.645, 241.307 380.836 C 240.377 378.726, 239.364 377.034, 239.058 377.076 C 238.751 377.118, 236.475 378.230, 234 379.548 M 299.204 405.261 C 297.233 407.649, 293.980 419.047, 292.373 429.190 C 291.160 436.850, 290.880 443.464, 291.260 455.464 C 291.690 468.996, 292.188 472.905, 294.451 480.494 C 295.926 485.441, 298.542 491.966, 300.264 494.994 C 304.551 502.531, 313.418 511.173, 320.559 514.775 C 337.023 523.077, 362.530 527.194, 398 527.275 C 427.861 527.343, 449.403 524.022, 462 517.410 C 470.407 512.998, 470.183 513.462, 469.001 502.872 C 468.426 497.718, 467.037 486.155, 465.914 477.179 C 464.791 468.202, 464.152 459.586, 464.493 458.032 C 464.834 456.479, 465.931 454.467, 466.931 453.562 C 467.931 452.657, 472.068 450.999, 476.125 449.878 C 480.181 448.756, 486.538 446.956, 490.250 445.877 L 497 443.915 497 438.483 C 497 433.365, 496.812 432.955, 493.750 431.378 C 491.962 430.457, 489.716 428.805, 488.757 427.707 C 487.023 425.721, 484.988 419.863, 485.037 417 C 485.051 416.175, 486.110 413.363, 487.390 410.750 C 488.671 408.137, 489.648 406, 489.562 406 C 489.477 406, 485.377 406.875, 480.453 407.945 C 469.286 410.370, 466.861 410.803, 460 411.594 C 456.975 411.943, 453.685 412.382, 452.689 412.569 C 447.516 413.540, 424.831 414.420, 404 414.458 C 383.360 414.495, 362.831 413.681, 353.500 412.456 C 351.850 412.240, 347.350 411.796, 343.500 411.470 C 339.650 411.145, 335.417 410.697, 334.092 410.477 C 332.768 410.256, 329.618 409.793, 327.092 409.447 C 324.567 409.101, 321.150 408.612, 319.500 408.359 C 314.613 407.609, 301.569 404.852, 300.872 404.421 C 300.517 404.201, 299.767 404.580, 299.204 405.261 M 498.382 404.984 C 495.822 406.016, 492.235 411.575, 491.384 415.828 C 490.156 421.969, 491.371 423.581, 500.958 428.533 C 507.750 432.040, 511.436 434.779, 516.285 439.920 C 519.797 443.643, 523.701 448.817, 524.960 451.418 C 526.220 454.019, 527.935 460.338, 528.772 465.461 L 530.294 474.774 535.080 475.234 C 537.712 475.487, 542.372 476.962, 545.435 478.511 C 548.498 480.061, 551.341 480.993, 551.752 480.581 C 552.163 480.170, 552.464 474.583, 552.420 468.167 C 552.348 457.688, 552.024 455.651, 549.238 448.161 C 547.532 443.574, 544.643 437.286, 542.818 434.186 C 538.701 427.194, 526.020 414.267, 519.990 410.916 C 510.650 405.725, 502.259 403.422, 498.382 404.984 M 321.750 433.556 C 321.337 433.984, 321 442.583, 321 452.667 L 321 471 330.032 471 C 343.385 471, 348 468.460, 348 461.113 C 348 457.266, 346.075 453, 344.339 453 C 342.436 453, 342.681 451.598, 344.943 449.551 C 347.434 447.297, 348.357 443.068, 347.086 439.726 C 345.411 435.321, 341.964 433.873, 331.791 433.301 C 326.681 433.014, 322.163 433.128, 321.750 433.556 M 351 434.773 C 351 435.198, 353.475 440.250, 356.500 446 C 361.798 456.071, 362 456.739, 362 464.227 L 362 472 365.500 472 C 367.425 472, 369.034 471.887, 369.075 471.750 C 369.116 471.613, 369.386 468.125, 369.674 464 C 370.211 456.298, 370.088 456.604, 379.216 440.250 L 382.147 435 377.564 435 L 372.981 435 369.776 441.500 C 368.013 445.075, 366.257 448, 365.874 448 C 365.490 448, 363.941 444.850, 362.430 441 L 359.684 434 355.342 434 C 352.954 434, 351 434.348, 351 434.773 M 385.750 435.571 C 385.337 435.990, 385 437.585, 385 439.114 C 385 441.764, 385.248 441.910, 390.250 442.198 L 395.500 442.500 395.500 457.500 L 395.500 472.500 399 472.500 L 402.500 472.500 402.777 457.750 C 402.978 447.035, 403.388 442.962, 404.277 442.860 C 404.950 442.783, 407.300 442.671, 409.500 442.610 C 413.255 442.507, 413.519 442.301, 413.813 439.250 L 414.127 436 404.703 436 C 399.520 436, 393.304 435.732, 390.890 435.405 C 388.475 435.077, 386.163 435.152, 385.750 435.571 M 420.444 437.285 C 420.173 437.992, 420.074 446.429, 420.225 456.035 L 420.500 473.500 432.750 473.781 L 445 474.062 445 471.070 L 445 468.078 436.250 467.789 L 427.500 467.500 427.500 463 L 427.500 458.500 434 458.197 C 437.575 458.031, 440.882 457.513, 441.349 457.048 C 441.816 456.582, 441.899 455.256, 441.532 454.101 C 440.939 452.233, 440.098 452, 433.933 452 L 427 452 427 447.500 L 427 443 436 443 L 445 443 445 439.500 L 445 436 432.969 436 C 424.091 436, 420.808 436.337, 420.444 437.285 M 503 439.441 C 503 440.784, 503.337 442.081, 503.750 442.324 C 504.163 442.566, 505.625 442.336, 507 441.811 L 509.500 440.857 507.139 438.928 C 505.841 437.868, 504.378 437, 503.889 437 C 503.400 437, 503 438.098, 503 439.441 M 328 444.500 L 328 449 332.800 449 C 338.018 449, 340 447.761, 340 444.500 C 340 441.239, 338.018 440, 332.800 440 L 328 440 328 444.500 M 510.544 446.789 C 510.349 446.985, 508.684 447.382, 506.844 447.671 C 505.005 447.961, 502.825 448.544, 502 448.967 C 501.175 449.390, 498.025 450.299, 495 450.987 C 484.972 453.267, 472.688 457.014, 471.206 458.244 C 470.062 459.194, 469.878 460.979, 470.360 466.478 C 470.698 470.340, 471.175 474.489, 471.420 475.698 C 471.665 476.907, 472.124 480.282, 472.440 483.198 C 472.756 486.114, 473.206 489.489, 473.440 490.698 C 473.674 491.907, 474.126 495.282, 474.445 498.198 C 474.765 501.114, 475.224 504.625, 475.466 506 C 475.708 507.375, 476.129 510.300, 476.402 512.500 C 477.428 520.784, 478.833 526.281, 480.144 527.137 C 480.890 527.624, 483.075 527.905, 485 527.761 C 487.453 527.578, 488.433 527.051, 488.275 526 C 488.052 524.510, 482.281 474.617, 481.335 466 C 481.014 463.072, 481.316 460.869, 482.199 459.692 C 483.114 458.474, 488.749 456.579, 499.472 453.882 C 508.225 451.680, 515.772 449.641, 516.242 449.350 C 517.632 448.491, 515.037 446.122, 512.883 446.284 C 511.793 446.366, 510.740 446.593, 510.544 446.789 M 328 460 L 328 465 332.929 465 C 338.306 465, 341 463.261, 341 459.789 C 341 456.736, 338.107 455.068, 332.750 455.032 L 328 455 328 460 M 523.861 482.980 C 521.953 484.579, 521.767 485.135, 522.888 485.874 C 523.651 486.377, 526.099 487.080, 528.327 487.436 C 534.124 488.363, 543.596 493.710, 547.481 498.249 L 550.811 502.139 551.485 499.069 C 551.856 497.381, 551.864 494.655, 551.503 493.012 C 550.686 489.294, 544.331 483.715, 539.142 482.161 C 533.079 480.344, 526.589 480.692, 523.861 482.980 M 323 488.500 L 323 495 326.250 494.985 C 330.060 494.967, 331.288 494.284, 332.850 491.315 C 334.275 488.609, 332.936 484.571, 330.114 483.061 C 329.023 482.477, 326.977 482, 325.566 482 C 323.075 482, 323 482.189, 323 488.500 M 337 489 L 337 495 341.167 495 C 343.458 495, 345.009 494.676, 344.613 494.280 C 344.217 493.884, 342.913 493.547, 341.715 493.530 C 340.452 493.513, 339.392 492.764, 339.195 491.750 C 338.941 490.448, 339.513 490, 341.427 490 C 342.842 490, 344 489.550, 344 489 C 344 488.450, 342.875 488, 341.500 488 C 339.944 488, 339 487.433, 339 486.500 C 339 485.576, 339.938 485, 341.441 485 C 342.784 485, 344.160 484.550, 344.500 484 C 344.873 483.396, 343.510 483, 341.059 483 L 337 483 337 489 M 349.011 484.487 C 347.257 486.601, 348.478 488.922, 351.987 490.145 C 353.644 490.723, 355 491.827, 355 492.598 C 355 494.313, 351.846 494.446, 350.200 492.800 C 349.267 491.867, 349 491.974, 349 493.281 C 349 495.337, 353.666 496.698, 355.905 495.295 C 356.782 494.745, 357.645 493.320, 357.822 492.127 C 358.072 490.444, 357.330 489.618, 354.503 488.437 C 352.500 487.600, 351.033 486.400, 351.243 485.770 C 351.858 483.926, 353.648 483.791, 355.320 485.463 C 356.405 486.547, 357.081 486.678, 357.564 485.896 C 359.237 483.190, 351.187 481.864, 349.011 484.487 M 362 489.559 C 362 493.677, 362.372 495.888, 363 495.500 C 363.550 495.160, 364 494.234, 364 493.441 C 364 491.269, 365.182 491.696, 367.623 494.750 C 370.598 498.473, 371.746 496.930, 369.205 492.623 C 367.430 489.614, 367.344 488.921, 368.549 487.330 C 369.312 486.324, 369.951 484.853, 369.968 484.063 C 369.988 483.147, 368.912 483.668, 367 485.500 L 364 488.374 364 485.687 C 364 484.209, 363.550 483, 363 483 C 362.435 483, 362 485.853, 362 489.559 M 375 490.500 L 375 497 378.250 496.985 C 380.038 496.976, 382.043 496.625, 382.706 496.203 C 384.113 495.309, 384.114 487.099, 382.706 485.250 C 382.183 484.563, 380.235 484, 378.378 484 L 375 484 375 490.500 M 388.015 489.250 C 388.024 492.137, 388.361 495.002, 388.765 495.615 C 389.169 496.229, 390.545 497.057, 391.822 497.455 C 395.573 498.627, 398 495.638, 398 489.845 C 398 487.180, 397.575 485, 397.055 485 C 396.535 485, 395.972 487.137, 395.805 489.750 C 395.528 494.069, 395.273 494.500, 393 494.500 C 390.689 494.500, 390.477 494.103, 390.198 489.250 C 390.031 486.363, 389.469 484, 388.948 484 C 388.426 484, 388.007 486.363, 388.015 489.250 M 326 488.930 C 326 491.720, 326.433 493, 327.378 493 C 331.408 493, 332.218 485.744, 328.250 485.180 C 326.233 484.894, 326 485.282, 326 488.930 M 402.843 490.599 C 402.654 493.679, 402.788 496.663, 403.140 497.231 C 404.139 498.840, 410.840 497.168, 411.988 495.023 C 414.678 489.996, 411.824 485, 406.264 485 C 403.233 485, 403.180 485.087, 402.843 490.599 M 417 491.500 L 417 498 420.429 498 C 425.570 498, 427.797 494.974, 427.049 489 C 426.758 486.671, 423.943 485, 420.309 485 L 417 485 417 491.500 M 431.980 488.960 C 433.091 491.138, 434 494.063, 434 495.460 C 434 497.051, 434.560 498, 435.500 498 C 436.469 498, 437.001 497.026, 437.004 495.250 C 437.006 493.738, 437.930 490.987, 439.058 489.137 C 440.185 487.288, 440.818 485.488, 440.464 485.137 C 440.110 484.787, 438.808 485.768, 437.569 487.317 L 435.318 490.134 433.636 487.567 C 430.987 483.525, 429.741 484.573, 431.980 488.960 M 405 491 C 405 494.720, 405.228 495.107, 407.250 494.820 C 409.094 494.558, 409.500 493.868, 409.500 491 C 409.500 488.132, 409.094 487.442, 407.250 487.180 C 405.228 486.893, 405 487.280, 405 491 M 420 491.500 C 420 496.115, 421.330 497.270, 423.800 494.800 C 426.276 492.324, 424.570 487, 421.300 487 C 420.426 487, 420 488.474, 420 491.500 M 514.135 493.477 C 512.285 494.315, 509.472 495, 507.885 495 C 506.293 495, 504.065 495.935, 502.913 497.087 C 501.368 498.632, 500.999 499.864, 501.491 501.837 C 501.857 503.301, 502.866 505.288, 503.733 506.250 C 505.700 508.432, 512.264 508.592, 514 506.500 C 515.692 504.461, 518 504.606, 517.999 506.750 C 517.998 509.518, 512.136 521.214, 509.183 524.342 C 507.707 525.904, 504.813 528.051, 502.750 529.112 C 500.688 530.173, 499 531.224, 499 531.449 C 499 531.673, 499.707 532.564, 500.571 533.429 C 502.591 535.448, 507.282 535.435, 511.574 533.398 C 513.431 532.516, 517.014 529.979, 519.537 527.759 C 522.570 525.089, 524.458 524.058, 525.115 524.715 C 525.771 525.371, 524.904 527.283, 522.553 530.362 C 520.599 532.922, 519 535.238, 519 535.509 C 519 535.779, 520.645 536, 522.655 536 C 525.618 536, 527.030 535.243, 530.115 532 C 532.208 529.800, 534.163 528, 534.460 528 C 535.580 528, 534.939 531.641, 533.443 533.777 C 532.060 535.752, 532.056 536, 533.408 536 C 535.758 536, 542.137 529.917, 543.693 526.193 C 547.880 516.171, 547.036 506.103, 541.549 500.615 C 539.756 498.823, 536.187 496.368, 533.617 495.160 C 527.415 492.245, 518.549 491.479, 514.135 493.477 M 333.261 527.762 C 332.411 529.978, 333.919 550.981, 335.085 553.159 C 335.655 554.224, 337.249 555.524, 338.626 556.048 C 341.954 557.313, 350.566 557.248, 355.344 555.921 L 359.188 554.854 358.476 543.177 C 358.084 536.755, 357.704 531.441, 357.632 531.370 C 357.559 531.298, 352.170 530.135, 345.655 528.784 C 335.645 526.709, 333.726 526.551, 333.261 527.762 M 442.500 529.515 C 439.200 530.252, 434.758 531.143, 432.629 531.495 L 428.757 532.136 429.379 538.068 C 431.457 557.906, 430.971 556.090, 434.610 557.610 C 436.439 558.375, 439.863 558.989, 442.218 558.976 C 446.661 558.951, 453.727 557.607, 454.740 556.593 C 455.060 556.273, 454.514 550.496, 453.527 543.756 C 452.540 537.015, 451.764 530.712, 451.804 529.750 C 451.888 527.704, 450.746 527.675, 442.500 529.515 M 360 560.110 C 354.254 562.385, 341.364 562.597, 336.346 560.500 C 334.371 559.675, 332.361 559, 331.878 559 C 331.395 559, 331 559.867, 331 560.927 C 331 563.088, 334.385 566.088, 338.959 567.983 C 340.632 568.676, 342 569.652, 342 570.153 C 342 572.173, 338.646 572.112, 332.969 569.989 C 326.270 567.483, 321.677 567.722, 314.367 570.956 C 305.782 574.753, 297 585.606, 297 592.417 C 297 598.694, 308.187 601.629, 328.408 600.657 C 347.322 599.749, 364.644 595.931, 369.740 591.547 L 372.400 589.259 370.636 582.880 C 369.666 579.371, 367.727 574.536, 366.327 572.136 C 364.201 568.489, 363.965 567.373, 364.891 565.339 C 366.167 562.539, 366.343 559.298, 365.250 558.724 C 364.837 558.507, 362.475 559.131, 360 560.110 M 456 562.227 C 449.546 564.521, 439.157 564.913, 433.658 563.071 C 428.681 561.404, 427.252 562.652, 429.394 566.796 C 430.871 569.651, 430.825 570.066, 428.576 574.161 C 426.135 578.606, 424.800 584.437, 424.800 590.651 C 424.800 598.450, 434.366 602.847, 453.248 603.727 C 466.893 604.363, 475.709 602.926, 479.454 599.455 C 481.501 597.558, 481.811 596.552, 481.336 593.342 C 480.077 584.824, 471.379 574.137, 464.248 572.347 C 462.821 571.989, 458.100 572.273, 453.757 572.978 C 448.275 573.869, 445.542 573.942, 444.817 573.217 C 443.137 571.537, 444.642 570.323, 449.223 569.661 C 457.296 568.495, 461.053 566.978, 462.222 564.412 C 462.904 562.915, 462.983 561.617, 462.423 561.109 C 461.915 560.649, 459.025 561.152, 456 562.227" fill="#1D2E3B" />
  <path d="M 309.217 190.845 C 308.511 191.293, 307.573 193.939, 307.132 196.726 L 306.332 201.792 309.916 202.385 C 311.887 202.711, 314.512 202.983, 315.750 202.989 C 317.802 202.999, 318 202.533, 318 197.700 C 318 194.785, 317.460 191.860, 316.800 191.200 C 315.433 189.833, 311.129 189.631, 309.217 190.845 M 508.730 193.250 C 507.822 193.938, 506.595 196.697, 506.005 199.383 C 505.415 202.068, 505.060 204.370, 505.216 204.497 C 505.372 204.625, 507.863 205.031, 510.750 205.399 C 515.484 206.003, 516 205.881, 516 204.159 C 516 203.109, 516.272 200.891, 516.604 199.229 C 517.060 196.951, 516.691 195.691, 515.104 194.104 C 512.692 191.692, 511.075 191.475, 508.730 193.250 M 305.614 211.165 C 305.334 212.999, 304.856 217.058, 304.551 220.185 L 303.998 225.870 309.861 223.889 L 315.725 221.909 316.364 215.790 C 316.716 212.424, 316.890 209.570, 316.752 209.448 C 316.613 209.326, 314.165 208.912, 311.311 208.528 L 306.123 207.829 305.614 211.165 M 503.524 213.250 C 502.872 216.101, 501.156 227.460, 501.352 227.620 C 501.434 227.687, 503.603 228.659, 506.174 229.780 L 510.848 231.820 512.561 222.304 C 514.501 211.529, 514.295 211.042, 507.769 211.015 C 504.713 211.003, 503.945 211.407, 503.524 213.250 M 506.333 239.500 C 506.333 240.325, 506.735 241, 507.226 241 C 507.716 241, 507.840 241.450, 507.500 242 C 507.160 242.550, 507.385 243, 508 243 C 508.615 243, 508.840 243.450, 508.500 244 C 508.160 244.550, 508.385 245, 509 245 C 509.615 245, 509.840 245.450, 509.500 246 C 509.160 246.550, 509.407 247, 510.048 247 C 510.689 247, 510.955 247.675, 510.638 248.500 C 510.322 249.325, 510.529 250, 511.099 250 C 511.717 250, 511.848 250.904, 511.423 252.242 C 510.814 254.161, 510.929 254.304, 512.223 253.230 C 513.441 252.219, 513.953 252.238, 514.859 253.330 C 515.477 254.075, 515.874 254.873, 515.741 255.104 C 515.609 255.335, 515.950 255.025, 516.500 254.416 C 517.050 253.806, 518.256 253.419, 519.180 253.555 C 520.270 253.716, 520.812 253.159, 520.723 251.971 C 520.647 250.963, 520.275 250.330, 519.897 250.564 C 519.519 250.797, 518.908 250.204, 518.540 249.244 C 518.172 248.285, 518.012 247.435, 518.185 247.355 C 518.358 247.275, 517.652 246.273, 516.616 245.129 C 515.580 243.984, 514.379 243.266, 513.946 243.533 C 513.514 243.800, 512.284 242.905, 511.213 241.543 C 510.142 240.182, 508.981 239.353, 508.633 239.701 C 508.285 240.049, 508 239.808, 508 239.167 C 508 238.525, 507.625 238, 507.167 238 C 506.708 238, 506.333 238.675, 506.333 239.500 M 512.655 256.368 C 512.241 257.945, 512.139 259.472, 512.428 259.761 C 513.233 260.566, 514.217 257.346, 513.789 255.308 C 513.508 253.975, 513.210 254.254, 512.655 256.368 M 513.607 266.582 C 512.815 268.646, 513.032 284.708, 513.964 293 C 514.366 296.575, 514.764 298.911, 514.848 298.191 C 514.931 297.471, 515.432 297.149, 515.960 297.475 C 516.488 297.802, 516.387 296.591, 515.735 294.784 C 515.054 292.894, 514.540 285.877, 514.525 278.252 C 514.511 270.966, 514.436 265.004, 514.357 265.002 C 514.278 265.001, 513.941 265.712, 513.607 266.582 M 526.710 274 C 526.423 275.100, 526.543 276, 526.977 276 C 527.411 276, 528.002 275.100, 528.290 274 C 528.577 272.900, 528.457 272, 528.023 272 C 527.589 272, 526.998 272.900, 526.710 274 M 526.520 278.806 C 527.005 280.525, 526.512 281.723, 524.585 283.509 C 521.498 286.370, 521.150 289.571, 523.927 289.571 C 524.986 289.571, 525.594 289.153, 525.278 288.641 C 524.955 288.119, 525.801 287.920, 527.205 288.188 C 529.635 288.653, 529.699 288.521, 529.433 283.583 C 529.282 280.787, 528.836 278.651, 528.441 278.835 C 528.047 279.020, 527.306 278.570, 526.796 277.835 C 526.167 276.930, 526.078 277.242, 526.520 278.806 M 333.001 284.123 C 329.466 285.533, 326 289.024, 326 291.174 C 326 292.178, 326.355 293, 326.789 293 C 327.222 293, 329.342 292.100, 331.500 291 C 333.806 289.825, 337.397 289, 340.211 289 C 344.305 289, 345 288.715, 345 287.035 C 345 283.418, 338.640 281.875, 333.001 284.123 M 430.250 285.220 C 428.894 285.874, 428 287.210, 428 288.581 C 428 290.730, 428.293 290.825, 433.305 290.308 C 437.538 289.871, 439.482 290.205, 442.924 291.961 C 445.722 293.389, 447.580 293.820, 448.212 293.188 C 449.866 291.534, 447.140 287.967, 442.669 285.937 C 438.036 283.833, 433.651 283.580, 430.250 285.220 M 518 291.711 C 518 292.881, 518.319 292.981, 519.342 292.131 C 520.080 291.519, 520.868 291.126, 521.092 291.259 C 521.316 291.391, 521.374 291.299, 521.221 291.054 C 521.068 290.809, 520.280 290.512, 519.471 290.393 C 518.662 290.274, 518 290.867, 518 291.711 M 527.388 295.980 C 523.987 297.354, 521.116 301.820, 518.754 309.410 C 517.006 315.031, 516.544 318.986, 516.524 328.500 C 516.503 338.779, 516.815 341.182, 518.696 345.254 C 522.141 352.714, 528.476 354.155, 534.516 348.852 C 537.843 345.931, 541.054 341.171, 540.960 339.300 C 540.938 338.860, 540.208 339.850, 539.338 341.500 C 537.295 345.375, 533.974 349, 532.467 349 C 531.773 349, 530.747 345.868, 529.989 341.436 C 528.969 335.475, 528.940 331.878, 529.851 324.463 C 531.125 314.103, 534.004 305.211, 536.949 302.546 C 538.775 300.893, 538.922 300.949, 540.429 303.863 C 541.295 305.537, 542.437 309.290, 542.968 312.203 L 543.934 317.500 543.502 312.148 C 542.951 305.324, 539.229 298.811, 534.633 296.630 C 530.795 294.809, 530.379 294.772, 527.388 295.980 M 220.336 303 C 220.336 307.125, 220.513 308.813, 220.728 306.750 C 220.944 304.688, 220.944 301.313, 220.728 299.250 C 220.513 297.188, 220.336 298.875, 220.336 303 M 266.960 305.357 C 263.620 312.909, 262.567 321.152, 263.907 329.266 C 264.546 333.135, 265.430 336.947, 265.873 337.737 C 266.334 338.562, 267.307 331.144, 268.156 320.337 C 268.969 309.977, 269.497 301.318, 269.329 301.095 C 269.162 300.873, 268.095 302.791, 266.960 305.357 M 333 309.207 C 328.054 312.556, 324.861 318.867, 324.248 326.501 C 323.838 331.609, 324.147 333.672, 325.849 337.187 C 327.024 339.616, 329.367 342.376, 331.143 343.425 L 334.329 345.307 332.664 342.931 C 331.584 341.389, 331 338.553, 331 334.854 C 331 330.180, 331.466 328.599, 333.589 326.077 C 339.706 318.807, 348.912 325.217, 347.707 335.907 L 347.191 340.483 348.726 337.554 C 350.850 333.499, 351.537 322.989, 350.029 317.605 C 348.515 312.197, 344.468 308.109, 339.906 307.381 C 337.352 306.973, 335.624 307.430, 333 309.207 M 427.619 312.030 C 423.350 315.778, 420.993 322.352, 421.022 330.428 C 421.047 337.434, 423.676 344.221, 427.067 346.036 C 429.077 347.112, 429.218 347.044, 428.457 345.366 C 427.991 344.340, 427.435 340.691, 427.220 337.258 C 426.855 331.411, 427.020 330.826, 429.838 328.008 C 434.292 323.554, 438.933 324.037, 441.620 329.233 C 443.233 332.350, 443.664 339.332, 442.476 343.075 C 441.226 347.013, 444.087 344.052, 446.297 339.121 C 449.181 332.685, 449.070 322.842, 446.043 316.588 C 443.526 311.390, 439.918 309, 434.584 309 C 432.097 309, 430.061 309.886, 427.619 312.030 M 551.252 320.500 C 551.263 322.700, 551.468 323.482, 551.707 322.238 C 551.946 320.994, 551.937 319.194, 551.687 318.238 C 551.437 317.282, 551.241 318.300, 551.252 320.500 M 543.160 325.625 C 543.072 327.344, 542.777 330.269, 542.503 332.125 L 542.007 335.500 543.059 332.146 C 543.638 330.301, 543.933 327.376, 543.716 325.646 L 543.320 322.500 543.160 325.625 M 285.272 337 C 285.272 339.475, 285.467 340.488, 285.706 339.250 C 285.944 338.012, 285.944 335.988, 285.706 334.750 C 285.467 333.512, 285.272 334.525, 285.272 337 M 509 342 C 509 343.867, 509.267 344.133, 510.200 343.200 C 511.133 342.267, 511.133 341.733, 510.200 340.800 C 509.267 339.867, 509 340.133, 509 342 M 364.222 345.178 C 362.584 346.816, 362.676 351.479, 364.411 354.800 C 366.236 358.293, 370.600 362.317, 374.946 364.513 C 379.903 367.017, 389.426 366.894, 394.500 364.260 C 401.526 360.612, 406 354.444, 406 348.404 C 406 347.047, 405.342 345.685, 404.537 345.376 C 403.732 345.067, 400.216 345.531, 396.723 346.407 C 393.230 347.283, 387.908 348, 384.896 348 C 380.114 348, 371.675 346.376, 366.972 344.550 C 366.131 344.223, 364.894 344.506, 364.222 345.178 M 509.131 347.763 C 508.526 349.268, 508.043 351.400, 508.060 352.500 C 508.106 355.667, 507.389 360.347, 506.572 362.202 C 506.160 363.138, 506.095 364.345, 506.428 364.883 C 506.760 365.421, 506.604 366.127, 506.080 366.451 C 505.556 366.774, 505.131 367.818, 505.136 368.770 C 505.144 370.495, 504.324 374.500, 503.962 374.500 C 503.858 374.500, 503.620 375.810, 503.433 377.412 C 503.247 379.013, 502.585 380.638, 501.962 381.023 C 501.339 381.409, 500.862 382.123, 500.903 382.612 C 501.049 384.387, 499.841 387, 498.874 387 C 498.328 387, 498.160 387.450, 498.500 388 C 498.840 388.550, 498.641 389, 498.059 389 C 497.477 389, 497 389.590, 497 390.312 C 497 391.034, 495.664 392.611, 494.032 393.818 C 492.399 395.025, 490.525 397.023, 489.868 398.256 C 488.811 400.240, 488.853 400.351, 490.231 399.215 C 491.088 398.508, 492.174 397.999, 492.645 398.083 C 493.115 398.168, 493.837 398.127, 494.250 397.993 C 494.663 397.860, 495.450 397.637, 496 397.500 C 496.550 397.363, 497.113 397.159, 497.250 397.048 C 497.387 396.938, 498.392 396.681, 499.482 396.478 C 500.572 396.275, 501.622 395.634, 501.815 395.054 C 502.008 394.475, 502.823 394, 503.626 394 C 504.429 394, 507.327 391.903, 510.067 389.341 C 515.483 384.275, 521.091 374.150, 523.458 365.164 L 524.864 359.829 521.796 358.164 C 517.922 356.063, 512.943 351.391, 513.734 350.599 C 514.064 350.270, 513.782 350, 513.108 350 C 512.434 350, 512.160 349.550, 512.500 349 C 512.840 348.450, 512.615 348, 512 348 C 511.385 348, 511.141 347.581, 511.457 347.069 C 511.774 346.557, 511.628 345.888, 511.132 345.582 C 510.637 345.276, 509.737 346.257, 509.131 347.763 M 236 358.627 C 230.459 362.492, 222.750 364.311, 214.233 363.765 L 206.808 363.288 207.410 366.299 C 208.186 370.181, 209.510 371.709, 214.143 374.073 C 221.483 377.817, 233.024 375.598, 237.802 369.524 C 240.334 366.305, 241.605 360.624, 240.374 358.027 C 239.546 356.283, 239.314 356.315, 236 358.627 M 245.948 398.591 C 243.501 401.104, 240.255 403.815, 238.733 404.615 C 236.403 405.839, 236.133 406.379, 237.018 408.034 C 237.597 409.115, 238.771 410, 239.628 410 C 240.484 410, 244.181 407.001, 247.843 403.337 C 252.592 398.583, 254.070 396.534, 253 396.187 C 252.175 395.919, 251.251 395.322, 250.948 394.861 C 250.644 394.399, 248.394 396.078, 245.948 398.591 M 300.589 405.943 C 299.538 406.326, 298.517 407.697, 298.319 408.991 C 298.122 410.285, 297.464 411.941, 296.858 412.672 C 295.981 413.728, 296.396 414, 298.888 414 C 300.612 414, 306.179 414.663, 311.261 415.474 C 337.485 419.657, 390.190 422.563, 423 421.637 C 442.730 421.079, 455.475 420.091, 477.216 417.432 C 482.318 416.808, 485.717 414.981, 485.929 412.750 C 485.968 412.337, 486.034 411.887, 486.077 411.750 C 486.768 409.491, 486.542 408.038, 485.433 407.613 C 484.680 407.324, 483.810 407.498, 483.500 408 C 483.190 408.502, 482.321 408.677, 481.569 408.388 C 480.817 408.100, 479.917 408.325, 479.569 408.888 C 479.221 409.452, 478.297 409.667, 477.516 409.368 C 476.735 409.068, 475.512 409.197, 474.798 409.655 C 473.478 410.500, 470.507 410.992, 466 411.111 C 464.625 411.147, 462.981 411.606, 462.346 412.131 C 461.711 412.656, 460.049 412.799, 458.652 412.449 C 457.256 412.098, 455.526 412.192, 454.807 412.656 C 454.088 413.120, 451.475 413.606, 449 413.735 C 446.525 413.865, 441.125 414.188, 437 414.454 C 420.599 415.510, 380.472 415.806, 379.354 414.879 C 378.720 414.352, 374.893 413.956, 370.850 413.999 C 366.808 414.042, 360.575 413.837, 357 413.543 C 353.425 413.249, 348.700 412.875, 346.500 412.712 C 344.300 412.549, 341.825 412.127, 341 411.773 C 340.175 411.419, 338.150 411.103, 336.500 411.071 C 331.038 410.965, 326.523 410.393, 324.750 409.584 C 323.788 409.145, 322.268 409.067, 321.373 409.410 C 320.479 409.754, 319.134 409.526, 318.386 408.905 C 317.638 408.284, 316.304 408.053, 315.422 408.391 C 314.541 408.730, 313.298 408.678, 312.660 408.277 C 312.022 407.876, 309.999 407.448, 308.164 407.325 C 306.330 407.203, 304.305 406.685, 303.664 406.175 C 303.024 405.665, 301.640 405.560, 300.589 405.943 M 487.821 436.563 C 487.594 442.513, 487.857 445.120, 488.718 445.448 C 489.388 445.704, 490.221 445.452, 490.569 444.888 C 490.917 444.325, 491.777 444.084, 492.479 444.354 C 493.182 444.623, 494.261 444.339, 494.878 443.722 C 496.114 442.486, 496.452 431.929, 495.250 432.118 C 493.311 432.425, 491.845 431.845, 490.071 430.071 C 488.167 428.167, 488.139 428.247, 487.821 436.563 M 426.250 435.735 C 428.863 435.941, 433.137 435.941, 435.750 435.735 C 438.363 435.529, 436.225 435.360, 431 435.360 C 425.775 435.360, 423.637 435.529, 426.250 435.735 M 384.232 439 C 384.232 440.925, 384.438 441.712, 384.689 440.750 C 384.941 439.788, 384.941 438.212, 384.689 437.250 C 384.438 436.288, 384.232 437.075, 384.232 439 M 504 439.893 C 504 441.067, 506.924 442.165, 508.107 441.434 C 508.616 441.119, 508.774 440.443, 508.457 439.931 C 507.722 438.741, 504 438.710, 504 439.893 M 429.250 443.689 C 430.212 443.941, 431.788 443.941, 432.750 443.689 C 433.712 443.438, 432.925 443.232, 431 443.232 C 429.075 443.232, 428.288 443.438, 429.250 443.689 M 541.452 446.023 C 539.225 446.465, 534.845 447.571, 531.718 448.480 C 526.810 449.907, 526.081 450.431, 526.388 452.316 C 526.583 453.517, 527.364 454.434, 528.122 454.354 C 528.880 454.273, 532.200 453.464, 535.500 452.555 C 538.800 451.647, 543.376 450.888, 545.669 450.869 C 549.836 450.833, 549.837 450.832, 548.821 447.917 C 547.738 444.809, 547.663 444.790, 541.452 446.023 M 509 447.335 C 509 447.593, 510.452 448.311, 512.227 448.929 C 514.002 449.548, 515.015 449.643, 514.477 449.140 C 513.338 448.074, 509 446.644, 509 447.335 M 330.250 455.689 C 331.212 455.941, 332.788 455.941, 333.750 455.689 C 334.712 455.438, 333.925 455.232, 332 455.232 C 330.075 455.232, 329.288 455.438, 330.250 455.689 M 479.032 455.867 C 479.012 456.736, 478.272 457.043, 477 456.710 C 475.900 456.423, 475 456.643, 475 457.201 C 475 457.758, 474.362 457.969, 473.583 457.670 C 471.240 456.771, 469.342 463.363, 471.254 465.758 C 471.807 466.451, 472.010 468.548, 471.707 470.419 C 471.403 472.290, 471.457 474.125, 471.827 474.496 C 472.197 474.867, 472.613 476.708, 472.750 478.586 C 472.887 480.464, 473.113 483.462, 473.250 485.250 C 473.387 487.038, 473.867 489.067, 474.315 489.759 C 474.763 490.451, 474.846 491.910, 474.500 493 C 474.154 494.090, 474.237 495.549, 474.685 496.241 C 475.415 497.368, 475.646 499.349, 476.058 508 C 476.123 509.375, 476.624 511.041, 477.171 511.702 C 477.718 512.363, 477.866 513.847, 477.500 515 C 477.134 516.154, 477.372 517.743, 478.029 518.535 C 478.686 519.327, 478.960 520.663, 478.637 521.505 C 478.314 522.346, 478.813 523.927, 479.747 525.017 C 481.675 527.270, 486.525 527.680, 487.302 525.656 C 487.666 524.706, 487.146 524.441, 485.526 524.750 C 484.266 524.991, 482.999 524.807, 482.711 524.342 C 482.296 523.670, 475.372 478.238, 473.571 464.369 C 473.202 461.525, 473.519 461.100, 477.032 459.719 C 479.838 458.617, 481.029 458.516, 481.371 459.350 C 481.658 460.050, 481.873 460.085, 481.921 459.441 C 481.964 458.859, 481.339 457.509, 480.532 456.441 C 479.556 455.151, 479.053 454.958, 479.032 455.867 M 361.272 460 C 361.272 462.475, 361.467 463.488, 361.706 462.250 C 361.944 461.012, 361.944 458.988, 361.706 457.750 C 361.467 456.512, 361.272 457.525, 361.272 460 M 424.776 474.733 C 427.128 474.945, 430.728 474.942, 432.776 474.727 C 434.824 474.512, 432.900 474.339, 428.500 474.343 C 424.100 474.346, 422.424 474.522, 424.776 474.733 M 525.308 482.194 C 521.612 483.981, 521.788 485.738, 525.737 486.478 C 533.212 487.881, 540.109 491.247, 545.381 496.065 L 550.769 500.989 551.270 498.370 C 552.082 494.121, 550.168 489.230, 546.640 486.539 C 540.265 481.677, 530.497 479.687, 525.308 482.194 M 375.762 483.707 C 377.006 483.946, 378.806 483.937, 379.762 483.687 C 380.718 483.437, 379.700 483.241, 377.500 483.252 C 375.300 483.263, 374.518 483.468, 375.762 483.707 M 416.629 484.791 C 416.360 485.226, 417.684 485.402, 419.570 485.182 C 421.457 484.961, 423 484.605, 423 484.391 C 423 483.638, 417.113 484.008, 416.629 484.791 M 336.252 488.500 C 336.263 490.700, 336.468 491.482, 336.707 490.238 C 336.946 488.994, 336.937 487.194, 336.687 486.238 C 336.437 485.282, 336.241 486.300, 336.252 488.500 M 463.500 506.170 C 459.311 510.517, 449.810 516.553, 443.348 518.971 C 440.354 520.091, 434.663 521.879, 430.702 522.943 C 426.440 524.089, 424.521 524.952, 426 525.058 C 427.375 525.156, 428.950 525.098, 429.500 524.929 C 430.050 524.760, 431.850 524.532, 433.500 524.423 C 435.150 524.315, 437.288 523.902, 438.250 523.506 C 439.212 523.110, 440.661 523.040, 441.468 523.349 C 442.275 523.659, 443.221 523.452, 443.569 522.888 C 443.917 522.325, 444.817 522.100, 445.569 522.388 C 446.321 522.677, 447.221 522.452, 447.569 521.888 C 447.917 521.325, 448.832 521.105, 449.601 521.400 C 450.371 521.696, 451 521.453, 451 520.862 C 451 520.270, 451.675 520.045, 452.500 520.362 C 453.325 520.678, 454 520.453, 454 519.862 C 454 519.270, 454.675 519.045, 455.500 519.362 C 456.325 519.678, 457 519.501, 457 518.969 C 457 518.436, 457.337 518.079, 457.750 518.175 C 458.832 518.426, 464.368 515.724, 465.235 514.520 C 465.639 513.959, 465.976 513.837, 465.985 514.250 C 465.993 514.663, 466.829 514.212, 467.842 513.250 C 469.195 511.965, 469.438 511.010, 468.757 509.657 C 468.247 508.643, 468.102 506.731, 468.434 505.407 C 469.282 502.029, 467.175 502.355, 463.500 506.170 M 333.708 530.424 C 333.450 532.116, 333.626 534.240, 334.098 535.144 C 334.929 536.735, 341.624 538.332, 353.250 539.714 L 358 540.279 358 535.671 C 358 532.053, 357.688 531.183, 356.548 531.620 C 355.749 531.926, 354.512 531.814, 353.798 531.369 C 353.084 530.925, 351.530 530.687, 350.346 530.840 C 349.161 530.993, 347.923 530.684, 347.595 530.153 C 347.266 529.622, 346.098 529.423, 344.999 529.711 C 343.900 529.998, 343 529.745, 343 529.148 C 343 528.551, 342.347 528.314, 341.548 528.620 C 340.749 528.926, 339.520 528.821, 338.815 528.386 C 335.955 526.618, 334.179 527.327, 333.708 530.424 M 449.030 528.813 C 449.014 529.535, 448.212 530.028, 447.250 529.909 C 446.288 529.790, 444.623 530.069, 443.551 530.530 C 442.479 530.990, 440.118 531.397, 438.304 531.433 C 436.490 531.470, 435.005 531.837, 435.003 532.250 C 435.001 532.663, 433.902 533, 432.559 533 C 429.554 533, 428.422 534.599, 430.043 536.552 C 430.751 537.405, 431.032 539.417, 430.715 541.368 L 430.171 544.718 440.336 542.871 C 445.926 541.856, 451.113 541.249, 451.861 541.524 C 452.839 541.882, 453.008 541.526, 452.460 540.261 C 452.041 539.293, 451.635 536.925, 451.559 535 C 451.429 531.704, 449.096 525.995, 449.030 528.813 M 364.300 537 C 364.300 540.025, 364.487 541.263, 364.716 539.750 C 364.945 538.237, 364.945 535.763, 364.716 534.250 C 364.487 532.737, 364.300 533.975, 364.300 537 M 331 560.393 C 331 562.712, 334.411 565.781, 339.055 567.639 C 341.271 568.525, 342.917 569.757, 342.714 570.375 C 342.074 572.330, 337.516 572.174, 332.023 570.009 C 327.394 568.184, 326.049 568.056, 321.491 569.002 C 311.076 571.164, 300.470 580.015, 298.127 588.501 C 296.094 595.867, 299.081 598.353, 312.190 600.207 C 318.451 601.092, 323.509 601.084, 333.609 600.172 C 347.549 598.913, 364.592 595.153, 368.772 592.414 C 371.054 590.919, 371.212 590.339, 370.697 585.349 C 370.340 581.894, 368.904 577.650, 366.757 573.706 C 363.726 568.138, 363.511 567.243, 364.674 565 C 366.372 561.727, 366.348 559, 364.622 559 C 363.864 559, 361.707 559.642, 359.829 560.427 C 354.329 562.725, 345.157 563.298, 339.500 561.696 C 336.750 560.918, 333.712 559.945, 332.750 559.534 C 331.499 558.999, 331 559.244, 331 560.393 M 457 562.073 C 450.329 564.659, 442.041 565.376, 435.572 563.929 C 432.501 563.241, 429.673 562.993, 429.289 563.378 C 428.905 563.762, 429.101 565.429, 429.725 567.082 C 430.702 569.670, 430.513 570.755, 428.364 574.897 C 426.639 578.222, 425.693 582.015, 425.303 587.178 C 424.753 594.445, 424.813 594.708, 427.507 596.827 C 437.308 604.536, 470.141 606.397, 478.624 599.724 C 480.858 597.966, 481.158 597.098, 480.758 593.549 C 480.111 587.802, 477.262 582.252, 472.676 577.801 C 467.729 573.001, 462.548 571.502, 455.859 572.937 C 453.132 573.522, 449.349 574, 447.451 574 C 444.775 574, 444 573.589, 444 572.173 C 444 570.714, 445.309 570.105, 450.500 569.148 C 459.763 567.441, 461.665 566.534, 462.235 563.551 C 462.508 562.122, 462.455 560.812, 462.116 560.641 C 461.777 560.469, 459.475 561.114, 457 562.073 M 317.776 607.733 C 320.128 607.945, 323.728 607.942, 325.776 607.727 C 327.824 607.512, 325.900 607.339, 321.500 607.343 C 317.100 607.346, 315.424 607.522, 317.776 607.733" fill="#A4D4E4" />
</svg>